{
    "asset" : {
        "generator" : "Khronos glTF Blender I/O v1.5.17",
        "version" : "2.0"
    },
    "scene" : 0,
    "scenes" : [
        {
            "name" : "Scene",
            "nodes" : [
                0,
                1,
                2,
                3,
                4,
                5,
                6,
                7,
                8,
                9,
                10
            ]
        }
    ],
    "nodes" : [
        {
            "mesh" : 0,
            "name" : "adesivo_lateral",
            "rotation" : [
                -0.09747876971960068,
                -0.059339456260204315,
                -0.5179349780082703,
                0.8477737307548523
            ],
            "scale" : [
                0.027618391439318657,
                0.11113547533750534,
                0.1259717345237732
            ],
            "translation" : [
                0.16587413847446442,
                0.326896995306015,
                0.43715983629226685
            ]
        },
        {
            "mesh" : 1,
            "name" : "Plane",
            "rotation" : [
                -0.07798879593610764,
                -0.0518023744225502,
                -0.761089026927948,
                0.6418549418449402
            ],
            "scale" : [
                0.04599345102906227,
                0.04599345102906227,
                0.12368669360876083
            ],
            "translation" : [
                -0.17276377975940704,
                0.32055824995040894,
                0.4476175308227539
            ]
        },
        {
            "mesh" : 2,
            "name" : "escapaamento_protetor",
            "rotation" : [
                0.7071068286895752,
                0,
                0,
                0.7071067094802856
            ]
        },
        {
            "mesh" : 3,
            "name" : "escapamento_ponteira",
            "rotation" : [
                0.7071068286895752,
                0,
                0,
                0.7071067094802856
            ]
        },
        {
            "mesh" : 4,
            "name" : "Caixa_De_ar",
            "rotation" : [
                0.7071068286895752,
                0,
                0,
                0.7071067094802856
            ]
        },
        {
            "mesh" : 5,
            "name" : "carenagem_esquerda",
            "rotation" : [
                0.7071068286895752,
                0,
                0,
                0.7071067094802856
            ]
        },
        {
            "mesh" : 6,
            "name" : "carenagem_direita",
            "rotation" : [
                0.7071068286895752,
                0,
                0,
                0.7071067094802856
            ]
        },
        {
            "mesh" : 7,
            "name" : "banco",
            "rotation" : [
                0.7071068286895752,
                0,
                0,
                0.7071067094802856
            ]
        },
        {
            "mesh" : 8,
            "name" : "Amortecedor_central",
            "rotation" : [
                0.7071068286895752,
                0,
                0,
                0.7071067094802856
            ]
        },
        {
            "mesh" : 9,
            "name" : "balanca",
            "rotation" : [
                0.7071068286895752,
                0,
                0,
                0.7071067094802856
            ]
        },
        {
            "mesh" : 10,
            "name" : "logo_yamaha",
            "rotation" : [
                0.7071068286895752,
                0,
                0,
                0.7071067094802856
            ]
        }
    ],
    "meshes" : [
        {
            "name" : "Plane",
            "primitives" : [
                {
                    "attributes" : {
                        "POSITION" : 0,
                        "NORMAL" : 1,
                        "TEXCOORD_0" : 2
                    },
                    "indices" : 3
                }
            ]
        },
        {
            "name" : "Plane.002",
            "primitives" : [
                {
                    "attributes" : {
                        "POSITION" : 4,
                        "NORMAL" : 5,
                        "TEXCOORD_0" : 6
                    },
                    "indices" : 3
                }
            ]
        },
        {
            "name" : "motor.005",
            "primitives" : [
                {
                    "attributes" : {
                        "POSITION" : 7,
                        "NORMAL" : 8,
                        "TEXCOORD_0" : 9
                    },
                    "indices" : 10
                }
            ]
        },
        {
            "name" : "motor.006",
            "primitives" : [
                {
                    "attributes" : {
                        "POSITION" : 11,
                        "NORMAL" : 12,
                        "TEXCOORD_0" : 13
                    },
                    "indices" : 14
                }
            ]
        },
        {
            "name" : "motor.002",
            "primitives" : [
                {
                    "attributes" : {
                        "POSITION" : 15,
                        "NORMAL" : 16,
                        "TEXCOORD_0" : 17
                    },
                    "indices" : 18
                }
            ]
        },
        {
            "name" : "lateral.001",
            "primitives" : [
                {
                    "attributes" : {
                        "POSITION" : 19,
                        "NORMAL" : 20,
                        "TEXCOORD_0" : 21
                    },
                    "indices" : 22
                }
            ]
        },
        {
            "name" : "lateral.002",
            "primitives" : [
                {
                    "attributes" : {
                        "POSITION" : 23,
                        "NORMAL" : 24,
                        "TEXCOORD_0" : 25
                    },
                    "indices" : 26
                }
            ]
        },
        {
            "name" : "banco.001",
            "primitives" : [
                {
                    "attributes" : {
                        "POSITION" : 27,
                        "NORMAL" : 28,
                        "TEXCOORD_0" : 29
                    },
                    "indices" : 30
                }
            ]
        },
        {
            "name" : "chassis.004",
            "primitives" : [
                {
                    "attributes" : {
                        "POSITION" : 31,
                        "NORMAL" : 32,
                        "TEXCOORD_0" : 33
                    },
                    "indices" : 34
                }
            ]
        },
        {
            "name" : "forks_rear_forks_rear.002",
            "primitives" : [
                {
                    "attributes" : {
                        "POSITION" : 35,
                        "NORMAL" : 36,
                        "TEXCOORD_0" : 37
                    },
                    "indices" : 38
                }
            ]
        },
        {
            "name" : "forks_rear_forks_rear.008",
            "primitives" : [
                {
                    "attributes" : {
                        "POSITION" : 39,
                        "NORMAL" : 40,
                        "TEXCOORD_0" : 41
                    },
                    "indices" : 42
                }
            ]
        }
    ],
    "accessors" : [
        {
            "bufferView" : 0,
            "componentType" : 5126,
            "count" : 4,
            "max" : [
                1.1099786758422852,
                0.18640106916427612,
                1.1423873901367188
            ],
            "min" : [
                -3.0893285274505615,
                -0.40187588334083557,
                -1.0163904428482056
            ],
            "type" : "VEC3"
        },
        {
            "bufferView" : 1,
            "componentType" : 5126,
            "count" : 4,
            "type" : "VEC3"
        },
        {
            "bufferView" : 2,
            "componentType" : 5126,
            "count" : 4,
            "type" : "VEC2"
        },
        {
            "bufferView" : 3,
            "componentType" : 5123,
            "count" : 6,
            "type" : "SCALAR"
        },
        {
            "bufferView" : 4,
            "componentType" : 5126,
            "count" : 4,
            "max" : [
                0.6030009984970093,
                0.9837529063224792,
                1.0241069793701172
            ],
            "min" : [
                -1.01505708694458,
                -1.3844554424285889,
                -0.9117428064346313
            ],
            "type" : "VEC3"
        },
        {
            "bufferView" : 5,
            "componentType" : 5126,
            "count" : 4,
            "type" : "VEC3"
        },
        {
            "bufferView" : 6,
            "componentType" : 5126,
            "count" : 4,
            "type" : "VEC2"
        },
        {
            "bufferView" : 7,
            "componentType" : 5126,
            "count" : 286,
            "max" : [
                0.2359990030527115,
                0.9354410171508789,
                -0.12880299985408783
            ],
            "min" : [
                0.12433599680662155,
                0.3457629978656769,
                -0.40934500098228455
            ],
            "type" : "VEC3"
        },
        {
            "bufferView" : 8,
            "componentType" : 5126,
            "count" : 286,
            "type" : "VEC3"
        },
        {
            "bufferView" : 9,
            "componentType" : 5126,
            "count" : 286,
            "type" : "VEC2"
        },
        {
            "bufferView" : 10,
            "componentType" : 5123,
            "count" : 861,
            "type" : "SCALAR"
        },
        {
            "bufferView" : 11,
            "componentType" : 5126,
            "count" : 1297,
            "max" : [
                0.21119600534439087,
                0.9715099930763245,
                -0.09082700312137604
            ],
            "min" : [
                0.057022999972105026,
                0.40591898560523987,
                -0.410724014043808
            ],
            "type" : "VEC3"
        },
        {
            "bufferView" : 12,
            "componentType" : 5126,
            "count" : 1297,
            "type" : "VEC3"
        },
        {
            "bufferView" : 13,
            "componentType" : 5126,
            "count" : 1297,
            "type" : "VEC2"
        },
        {
            "bufferView" : 14,
            "componentType" : 5123,
            "count" : 3870,
            "type" : "SCALAR"
        },
        {
            "bufferView" : 15,
            "componentType" : 5126,
            "count" : 460,
            "max" : [
                0.08959999680519104,
                0.3712430000305176,
                -0.08190800249576569
            ],
            "min" : [
                -0.08959999680519104,
                0.083296999335289,
                -0.29217100143432617
            ],
            "type" : "VEC3"
        },
        {
            "bufferView" : 16,
            "componentType" : 5126,
            "count" : 460,
            "type" : "VEC3"
        },
        {
            "bufferView" : 17,
            "componentType" : 5126,
            "count" : 460,
            "type" : "VEC2"
        },
        {
            "bufferView" : 18,
            "componentType" : 5123,
            "count" : 1731,
            "type" : "SCALAR"
        },
        {
            "bufferView" : 19,
            "componentType" : 5126,
            "count" : 253,
            "max" : [
                0.18691100180149078,
                0.5918769836425781,
                -0.04906800016760826
            ],
            "min" : [
                0.0743279978632927,
                0.020024999976158142,
                -0.3928149938583374
            ],
            "type" : "VEC3"
        },
        {
            "bufferView" : 20,
            "componentType" : 5126,
            "count" : 253,
            "type" : "VEC3"
        },
        {
            "bufferView" : 21,
            "componentType" : 5126,
            "count" : 253,
            "type" : "VEC2"
        },
        {
            "bufferView" : 22,
            "componentType" : 5123,
            "count" : 867,
            "type" : "SCALAR"
        },
        {
            "bufferView" : 23,
            "componentType" : 5126,
            "count" : 253,
            "max" : [
                -0.07771900296211243,
                0.5918769836425781,
                -0.04906800016760826
            ],
            "min" : [
                -0.19030199944972992,
                0.020024999976158142,
                -0.3928149938583374
            ],
            "type" : "VEC3"
        },
        {
            "bufferView" : 24,
            "componentType" : 5126,
            "count" : 253,
            "type" : "VEC3"
        },
        {
            "bufferView" : 25,
            "componentType" : 5126,
            "count" : 253,
            "type" : "VEC2"
        },
        {
            "bufferView" : 26,
            "componentType" : 5123,
            "count" : 867,
            "type" : "SCALAR"
        },
        {
            "bufferView" : 27,
            "componentType" : 5126,
            "count" : 193,
            "max" : [
                0.14938299357891083,
                0.862529993057251,
                -0.29643499851226807
            ],
            "min" : [
                -0.15981300175189972,
                0.11185300350189209,
                -0.5233319997787476
            ],
            "type" : "VEC3"
        },
        {
            "bufferView" : 28,
            "componentType" : 5126,
            "count" : 193,
            "type" : "VEC3"
        },
        {
            "bufferView" : 29,
            "componentType" : 5126,
            "count" : 193,
            "type" : "VEC2"
        },
        {
            "bufferView" : 30,
            "componentType" : 5123,
            "count" : 684,
            "type" : "SCALAR"
        },
        {
            "bufferView" : 31,
            "componentType" : 5126,
            "count" : 1684,
            "max" : [
                0.023204000666737556,
                0.2217629998922348,
                0.17174899578094482
            ],
            "min" : [
                -0.02307800017297268,
                0.15787699818611145,
                -0.06357800215482712
            ],
            "type" : "VEC3"
        },
        {
            "bufferView" : 32,
            "componentType" : 5126,
            "count" : 1684,
            "type" : "VEC3"
        },
        {
            "bufferView" : 33,
            "componentType" : 5126,
            "count" : 1684,
            "type" : "VEC2"
        },
        {
            "bufferView" : 34,
            "componentType" : 5123,
            "count" : 7707,
            "type" : "SCALAR"
        },
        {
            "bufferView" : 35,
            "componentType" : 5126,
            "count" : 3507,
            "max" : [
                0.1321209967136383,
                0.8061670064926147,
                0.274401992559433
            ],
            "min" : [
                -0.12484200298786163,
                0.12195000052452087,
                -0.18897399306297302
            ],
            "type" : "VEC3"
        },
        {
            "bufferView" : 36,
            "componentType" : 5126,
            "count" : 3507,
            "type" : "VEC3"
        },
        {
            "bufferView" : 37,
            "componentType" : 5126,
            "count" : 3507,
            "type" : "VEC2"
        },
        {
            "bufferView" : 38,
            "componentType" : 5123,
            "count" : 14892,
            "type" : "SCALAR"
        },
        {
            "bufferView" : 39,
            "componentType" : 5126,
            "count" : 71,
            "max" : [
                0.11162000149488449,
                0.693461000919342,
                0.17344200611114502
            ],
            "min" : [
                0.11123882234096527,
                0.5228869915008545,
                0.1182359978556633
            ],
            "type" : "VEC3"
        },
        {
            "bufferView" : 40,
            "componentType" : 5126,
            "count" : 71,
            "type" : "VEC3"
        },
        {
            "bufferView" : 41,
            "componentType" : 5126,
            "count" : 71,
            "type" : "VEC2"
        },
        {
            "bufferView" : 42,
            "componentType" : 5123,
            "count" : 183,
            "type" : "SCALAR"
        }
    ],
    "bufferViews" : [
        {
            "buffer" : 0,
            "byteLength" : 48,
            "byteOffset" : 0
        },
        {
            "buffer" : 0,
            "byteLength" : 48,
            "byteOffset" : 48
        },
        {
            "buffer" : 0,
            "byteLength" : 32,
            "byteOffset" : 96
        },
        {
            "buffer" : 0,
            "byteLength" : 12,
            "byteOffset" : 128
        },
        {
            "buffer" : 0,
            "byteLength" : 48,
            "byteOffset" : 140
        },
        {
            "buffer" : 0,
            "byteLength" : 48,
            "byteOffset" : 188
        },
        {
            "buffer" : 0,
            "byteLength" : 32,
            "byteOffset" : 236
        },
        {
            "buffer" : 0,
            "byteLength" : 3432,
            "byteOffset" : 268
        },
        {
            "buffer" : 0,
            "byteLength" : 3432,
            "byteOffset" : 3700
        },
        {
            "buffer" : 0,
            "byteLength" : 2288,
            "byteOffset" : 7132
        },
        {
            "buffer" : 0,
            "byteLength" : 1722,
            "byteOffset" : 9420
        },
        {
            "buffer" : 0,
            "byteLength" : 15564,
            "byteOffset" : 11144
        },
        {
            "buffer" : 0,
            "byteLength" : 15564,
            "byteOffset" : 26708
        },
        {
            "buffer" : 0,
            "byteLength" : 10376,
            "byteOffset" : 42272
        },
        {
            "buffer" : 0,
            "byteLength" : 7740,
            "byteOffset" : 52648
        },
        {
            "buffer" : 0,
            "byteLength" : 5520,
            "byteOffset" : 60388
        },
        {
            "buffer" : 0,
            "byteLength" : 5520,
            "byteOffset" : 65908
        },
        {
            "buffer" : 0,
            "byteLength" : 3680,
            "byteOffset" : 71428
        },
        {
            "buffer" : 0,
            "byteLength" : 3462,
            "byteOffset" : 75108
        },
        {
            "buffer" : 0,
            "byteLength" : 3036,
            "byteOffset" : 78572
        },
        {
            "buffer" : 0,
            "byteLength" : 3036,
            "byteOffset" : 81608
        },
        {
            "buffer" : 0,
            "byteLength" : 2024,
            "byteOffset" : 84644
        },
        {
            "buffer" : 0,
            "byteLength" : 1734,
            "byteOffset" : 86668
        },
        {
            "buffer" : 0,
            "byteLength" : 3036,
            "byteOffset" : 88404
        },
        {
            "buffer" : 0,
            "byteLength" : 3036,
            "byteOffset" : 91440
        },
        {
            "buffer" : 0,
            "byteLength" : 2024,
            "byteOffset" : 94476
        },
        {
            "buffer" : 0,
            "byteLength" : 1734,
            "byteOffset" : 96500
        },
        {
            "buffer" : 0,
            "byteLength" : 2316,
            "byteOffset" : 98236
        },
        {
            "buffer" : 0,
            "byteLength" : 2316,
            "byteOffset" : 100552
        },
        {
            "buffer" : 0,
            "byteLength" : 1544,
            "byteOffset" : 102868
        },
        {
            "buffer" : 0,
            "byteLength" : 1368,
            "byteOffset" : 104412
        },
        {
            "buffer" : 0,
            "byteLength" : 20208,
            "byteOffset" : 105780
        },
        {
            "buffer" : 0,
            "byteLength" : 20208,
            "byteOffset" : 125988
        },
        {
            "buffer" : 0,
            "byteLength" : 13472,
            "byteOffset" : 146196
        },
        {
            "buffer" : 0,
            "byteLength" : 15414,
            "byteOffset" : 159668
        },
        {
            "buffer" : 0,
            "byteLength" : 42084,
            "byteOffset" : 175084
        },
        {
            "buffer" : 0,
            "byteLength" : 42084,
            "byteOffset" : 217168
        },
        {
            "buffer" : 0,
            "byteLength" : 28056,
            "byteOffset" : 259252
        },
        {
            "buffer" : 0,
            "byteLength" : 29784,
            "byteOffset" : 287308
        },
        {
            "buffer" : 0,
            "byteLength" : 852,
            "byteOffset" : 317092
        },
        {
            "buffer" : 0,
            "byteLength" : 852,
            "byteOffset" : 317944
        },
        {
            "buffer" : 0,
            "byteLength" : 568,
            "byteOffset" : 318796
        },
        {
            "buffer" : 0,
            "byteLength" : 366,
            "byteOffset" : 319364
        }
    ],
    "buffers" : [
        {
            "byteLength" : 319732,
            "uri" : "lander250.bin"
        }
    ]
}
